<?xml version="1.0" standalone="no"?>
<!DOCTYPE svg PUBLIC "-//W3C//DTD SVG 20010904//EN"
 "http://www.w3.org/TR/2001/REC-SVG-20010904/DTD/svg10.dtd">
<svg version="1.0" xmlns="http://www.w3.org/2000/svg"
 width="1400.000000pt" height="1400.000000pt" viewBox="0 0 1400.000000 1400.000000"
 preserveAspectRatio="xMidYMid meet">
<metadata>
Created by potrace 1.11, written by Peter Selinger 2001-2013
</metadata>
<g transform="translate(0.000000,1400.000000) scale(0.100000,-0.100000)"
fill="#000000" stroke="none">
<path d="M3830 9814 c-129 -27 -264 -92 -336 -162 -159 -153 -213 -370 -155
-615 11 -46 138 -376 287 -747 147 -366 275 -685 284 -710 131 -338 313 -772
353 -840 238 -403 712 -714 1172 -767 80 -9 2188 -9 2286 0 172 16 362 81 579
198 29 16 172 110 180 119 3 3 28 23 55 45 119 95 272 267 342 385 51 86 101
204 423 1010 187 470 345 864 350 875 30 65 140 347 150 385 39 144 44 251 19
379 -13 64 -78 193 -122 241 -101 111 -242 184 -407 210 -43 6 -951 10 -2730
9 -2235 -1 -2675 -3 -2730 -15z m5252 -568 c19 -9 45 -27 56 -39 23 -25 52
-97 52 -131 0 -74 -56 -157 -120 -179 -28 -9 -605 -12 -2540 -10 -1378 1
-2513 3 -2523 4 -27 3 -92 64 -111 103 -47 99 9 229 112 259 30 9 650 12 2539
11 2331 -1 2501 -2 2535 -18z m-326 -1070 c120 -79 115 -278 -9 -342 -29 -15
-212 -17 -2197 -17 -1191 0 -2182 3 -2201 7 -46 8 -96 61 -113 117 -28 94 9
199 81 235 37 18 109 19 2224 19 2138 0 2186 0 2215 -19z m-467 -1067 c92 -56
98 -260 9 -334 l-30 -25 -1735 0 -1736 0 -37 39 c-75 79 -71 242 8 312 l30 27
1730 0 c1694 0 1730 0 1761 -19z"/>
<path d="M10380 8847 l-155 -103 -91 -214 c-51 -118 -100 -233 -109 -255 -10
-22 -55 -130 -102 -240 -47 -110 -91 -213 -98 -230 -8 -16 -46 -106 -85 -200
-39 -93 -78 -183 -85 -200 -7 -16 -53 -122 -100 -235 -48 -113 -93 -218 -100
-235 -8 -16 -84 -196 -170 -400 -205 -485 -244 -576 -255 -600 -6 -11 -34 -76
-62 -145 l-53 -125 -2135 0 c-1174 1 -2153 -3 -2175 -8 -97 -20 -195 -100
-238 -195 -33 -70 -31 -208 3 -277 36 -74 114 -147 185 -174 l60 -23 2220 1
c1221 0 2240 0 2266 0 40 1 61 12 199 104 l154 102 68 160 c75 175 72 167 123
292 20 48 43 102 50 118 8 17 26 59 41 95 14 36 34 83 44 105 10 22 37 85 60
140 23 55 47 114 55 130 7 17 65 154 129 305 64 151 121 284 126 295 5 11 143
335 306 720 163 385 300 704 304 709 5 5 315 9 706 9 515 0 709 3 743 12 118
31 203 113 235 225 19 69 21 103 11 160 -18 108 -83 193 -183 242 l-67 33
-835 3 -835 2 -155 -103z"/>
<path d="M4995 4865 c-201 -47 -354 -188 -426 -395 -30 -86 -33 -256 -5 -340
57 -170 173 -302 328 -372 207 -95 472 -47 647 116 78 73 151 213 168 323 16
109 -1 248 -44 342 -20 44 -85 135 -127 177 -134 134 -351 194 -541 149z"/>
<path d="M8125 4873 c-284 -62 -477 -299 -477 -586 0 -261 183 -494 442 -562
75 -20 233 -17 302 5 184 60 325 189 387 356 28 73 32 96 35 194 6 159 -51
307 -163 420 -119 120 -236 171 -401 175 -58 1 -114 1 -125 -2z"/>
</g>
</svg>
